<svg xmlns="http://www.w3.org/2000/svg" width="128" height="128" viewBox="0 0 128 128">
  <defs>
    <linearGradient id="sky" x1="0" y1="0" x2="0" y2="1">
      <stop offset="0" stop-color="#1a2b4a"/>
      <stop offset="0.6" stop-color="#2d5a8e"/>
      <stop offset="1" stop-color="#4a89c7"/>
    </linearGradient>
    <linearGradient id="bolt" x1="0" y1="0" x2="1" y2="1">
      <stop offset="0" stop-color="#ffd94a"/>
      <stop offset="1" stop-color="#ff9e2c"/>
    </linearGradient>
  </defs>
  <rect width="128" height="128" rx="24" fill="url(#sky)"/>
  <path d="M 20 78 q 14 -10 30 -8 l 40 4 q 16 2 18 8 q -2 6 -18 6 l -40 -2 q -16 2 -30 -8 z" fill="#e8edf4"/>
  <path d="M 62 74 l 26 -26 l 8 4 l -18 26 z" fill="#cdd6e2"/>
  <path d="M 62 82 l 26 22 l 8 -4 l -18 -22 z" fill="#cdd6e2"/>
  <path d="M 96 74 l 12 -16 l 4 4 l -8 16 z" fill="#e8edf4"/>
  <circle cx="30" cy="78" r="4" fill="#25344d"/>
  <path d="M 46 30 l -12 26 h 10 l -8 22 l 26 -30 h -12 l 10 -18 z" fill="url(#bolt)" stroke="#a85f00" stroke-width="1.5"/>
</svg>
